<svg xmlns="http://www.w3.org/2000/svg" viewBox="0 0 1280 320" width="1280" height="320" role="img" aria-label="Quality Gate: a MAX 1080p height bar and a lorry too tall for it"><defs><clipPath id="cl"><rect width="1280" height="320" rx="18"/></clipPath></defs><g clip-path="url(#cl)"><rect width="1280" height="320" fill="#20163A"/><rect y="286" width="1280" height="34" fill="#171029"/><rect y="284" width="1280" height="3" fill="#3B2C63"/><path fill="#FFF"  d="M99,97q15,0 23,8q8,7 8,22q0,10-3,17q-4,6-11,10l13,13l-22,0l-9-10q-15,0-22-8q-8-7-8-22q0-15 8-22q8-8 23-8zM99,111q-6,0-9,4q-3,3-3,9l0,6q0,6 3,10q3,3 9,3q6,0 9-3q3-4 3-10l0-6q0-6-3-9q-3-4-9-4zM171,156l-1-7q-3,4-7,6q-4,2-9,2q-7,0-11-4q-4-5-4-13l0-28l17,0l0,26q0,3 1,5q1,2 4,2q3,0 5-2q2-2 2-5l0-26l17,0l0,44zM240,125l0,17q0,2 1,3q0,1 2,1l3,0l0,9q-1,0-2,1q-1,0-3,1q-2,0-4,0q-5,0-8-1q-3-2-4-5q-4,3-8,4q-4,2-9,2q-15,0-15-12q0-7 3-10q3-4 10-5q7-1 17-1l0-2q0-3-2-4q-1-2-4-2q-3,0-5,1q-2,1-2,3l0,1l-16,0q0-1 0-2q0-6 6-10q6-3 17-3q10,0 17,3q6,3 6,11zM209,142q0,5 6,5q3,0 6-2q2-2 2-5l0-3q-7,0-10,1q-4,2-4,4zM252,156l0-61l16,0l0,61zM280,106l0-11l16,0l0,11zM280,156l0-44l16,0l0,44zM337,112l0,11l-10,0l0,17q0,3 1,4q1,2 4,2l5,0l0,9q-2,1-6,2q-3,0-5,0q-8,0-12-3q-4-2-4-9l0-22l-6,0l0-11l7,0l4-14l12,0l0,14zM352,174q-5,0-9-2l0-10l6,0q7,0 8-6l-18-44l18,0l9,29l0,0l8-29l17,0l-16,43q-4,9-9,14q-5,5-14,5zM483,119l-17,0q0-3-4-6q-3-2-7-2q-7,0-10,4q-4,3-4,9l0,6q0,6 4,10q3,3 10,3q4,0 7-2q4-2 4-5l-14,0l0-12l31,0l0,32l-9,0l-2-6q-8,7-21,7q-14,0-21-8q-8-7-8-22q0-15 9-22q8-8 23-8q8,0 15,3q6,2 10,7q4,5 4,12zM538,125l0,17q0,2 1,3q1,1 2,1l3,0l0,9q0,0-1,1q-1,0-3,1q-2,0-5,0q-4,0-8-1q-3-2-4-5q-3,3-7,4q-4,2-9,2q-16,0-16-12q0-7 4-10q3-4 10-5q6-1 17-1l0-2q0-3-2-4q-2-2-5-2q-2,0-4,1q-2,1-2,3l0,1l-17,0q0-1 0-2q0-6 6-10q6-3 18-3q10,0 16,3q6,3 6,11zM508,142q0,5 5,5q4,0 6-2q3-2 3-5l0-3q-7,0-11,1q-3,2-3,4zM579,112l0,11l-9,0l0,17q0,3 1,4q1,2 3,2l5,0l0,9q-2,1-5,2q-3,0-6,0q-7,0-11-3q-4-2-4-9l0-22l-6,0l0-11l7,0l3-14l13,0l0,14zM635,134l0,3l-33,0q0,4 2,7q2,2 7,2q4,0 6-1q2-2 2-5l16,0q0,8-6,12q-6,5-18,5q-13,0-19-6q-7-5-7-17q0-12 7-17q6-6 18-6q12,0 18,5q7,6 7,18zM602,129l16,0q0-4-2-6q-2-2-5-2q-8,0-9,8z"/><path fill="#D7B8E3"  d="M78.4,210.4q-3,0-5.3-1.5q-2.3-1.4-3.6-3.9q-1.3-2.6-1.3-5.9q0-3.4 1.3-5.9q1.3-2.6 3.6-4q2.3-1.4 5.3-1.4q1.8,0 3.3,.6q1.5,.5 2.8,1.5q1.2,1 2,2.4q.8,1.4 1.1,3.1l-3.3,0q-.3-1.1-.8-1.9q-.5-.9-1.3-1.5q-.8-.6-1.7-.9q-1-.3-2.1-.3q-2.2,0-3.7,1q-1.6,1.1-2.4,2.9q-.8,1.9-.8,4.4q0,2.5 .8,4.3q.8,1.9 2.4,2.9q1.5,1.1 3.7,1.1q1.1,0 2.1-.3q.9-.3 1.7-.9q.8-.6 1.3-1.5q.5-.8 .8-1.9l3.3,0q-.3,1.7-1.1,3.1q-.8,1.4-2,2.4q-1.3,1-2.8,1.5q-1.5,.6-3.3,.6zM95.2,210.2q-1.6,0-2.8-.5q-1.2-.5-1.9-1.5q-.7-1.1-.7-2.6q0-1.3 .5-2.2q.5-.8 1.4-1.3q.8-.5 1.9-.8q1.1-.3 2.3-.4q1.5-.2 2.3-.3q.9-.1 1.2-.3q.4-.3 .4-.8l0-.2q0-.7-.4-1.3q-.3-.6-1.1-.9q-.7-.3-1.6-.3q-1,0-1.8,.3q-.7,.3-1.2,.9q-.4,.5-.5,1.2l-3,0q.1-1.4 .9-2.6q.8-1.1 2.2-1.7q1.5-.7 3.4-.7q1.4,0 2.6,.4q1.1,.4 1.9,1q.8,.7 1.2,1.7q.4,.9 .4,2.1l0,10.6l-3,0l0-2.2l-.1,0q-.3,.6-.8,1.2q-.6,.5-1.5,.9q-.9,.3-2.2,.3zM95.8,207.8q1.4,0 2.2-.5q.9-.5 1.4-1.3q.4-.8 .4-1.8l0-1.8q-.2,.1-.5,.2q-.4,.1-.9,.2q-.5,.1-1.1,.2q-.6,.1-1.2,.2q-.9,.1-1.6,.4q-.7,.3-1.2,.8q-.4,.4-.4,1.2q0,.7 .3,1.2q.4,.4 1,.7q.7,.3 1.6,.3zM106.3,216.1l0-21.6l3.1,0l0,2.3l0,0q.5-.9 1.2-1.4q.8-.6 1.7-.9q.9-.3 1.9-.3q2,0 3.5,1q1.5,1.1 2.3,2.9q.9,1.8 .9,4.2q0,2.4-.8,4.2q-.9,1.8-2.4,2.8q-1.5,1-3.5,1q-1,0-1.9-.3q-.9-.3-1.6-.9q-.7-.6-1.2-1.4l-.1,0l0,8.4zM113.6,207.6q1.2,0 2.2-.6q.9-.6 1.4-1.8q.6-1.2 .6-2.9q0-1.8-.6-3q-.5-1.2-1.4-1.8q-1-.6-2.2-.6q-1.4,0-2.3,.6q-1,.7-1.5,1.9q-.6,1.2-.6,2.9q0,1.6 .6,2.8q.5,1.2 1.5,1.9q.9,.6 2.3,.6zM138.2,194.5l0,2.6l-8.9,0l0-2.6zM132,190.3l3.1,0l0,15.6q0,.9 .3,1.2q.4,.4 1.3,.4q.4,0 .8,0q.4,0 .7,0l0,2.5q-.4,0-.9,0q-.5,0-1,0q-2.2,0-3.3-.9q-1-.9-1-2.8zM143.8,201.1l0,8.9l-3.1,0l0-21.8l3.1,0l0,10.2l-.8,0q.7-2.1 2.1-3.1q1.4-1.1 3.3-1.1q1.6,0 2.8,.7q1.3,.7 2,2.1q.8,1.3 .8,3.4l0,9.6l-3.1,0l0-9.3q0-1.8-.9-2.8q-.9-.9-2.5-.9q-1.1,0-1.9,.4q-.8,.4-1.3,1.4q-.5,.9-.5,2.3zM164.1,210.4q-2.3,0-4-1.1q-1.6-1-2.5-2.9q-.9-1.8-.9-4.1q0-2.4 .9-4.2q.9-1.8 2.6-2.9q1.6-1 3.7-1q1.6,0 3,.6q1.3,.6 2.2,1.6q1,1.1 1.5,2.6q.5,1.5 .5,3.3l0,.8l-13,0l0-2.3l11.4,0l-1.4,.7q0-1.5-.5-2.5q-.5-1.1-1.4-1.7q-1-.5-2.3-.5q-1.2,0-2.2,.5q-.9,.6-1.4,1.7q-.6,1-.6,2.5l0,1.3q0,1.5 .6,2.6q.5,1.1 1.4,1.7q1,.7 2.4,.7q1,0 1.8-.3q.8-.4 1.3-.9q.5-.6 .7-1.3l3,0q-.3,1.5-1.3,2.6q-.9,1.2-2.4,1.8q-1.4,.7-3.1,.7zM180.9,210l0-15.5l3,0l0,2.5l.1,0q.4-1.2 1.3-1.9q.9-.8 2.4-.8q.3,0 .6,.1q.3,0 .5,0l0,2.9q-.2,0-.6-.1q-.5,0-1,0q-.9,0-1.6,.3q-.7,.4-1.1,1.3q-.5,.8-.5,2.1l0,9.1zM197.7,210.4q-2.3,0-3.9-1.1q-1.7-1-2.6-2.9q-.8-1.8-.8-4.1q0-2.4 .9-4.2q.9-1.8 2.5-2.9q1.7-1 3.8-1q1.6,0 2.9,.6q1.4,.6 2.3,1.6q1,1.1 1.5,2.6q.5,1.5 .5,3.3l0,.8l-13.1,0l0-2.3l11.5,0l-1.4,.7q0-1.5-.5-2.5q-.5-1.1-1.5-1.7q-.9-.5-2.2-.5q-1.3,0-2.2,.5q-1,.6-1.5,1.7q-.5,1-.5,2.5l0,1.3q0,1.5 .5,2.6q.5,1.1 1.5,1.7q1,.7 2.4,.7q1,0 1.8-.3q.7-.4 1.2-.9q.6-.6 .8-1.3l2.9,0q-.2,1.5-1.2,2.6q-.9,1.2-2.4,1.8q-1.4,.7-3.2,.7zM213.2,210.4q-1.8,0-3.2-.6q-1.4-.6-2.3-1.7q-.9-1.1-1-2.8l3.1,0q.1,1.2 1,1.9q.8,.7 2.3,.7q1.5,0 2.3-.6q.9-.6 .9-1.5q0-.8-.6-1.3q-.6-.5-1.6-.7l-2.6-.6q-2.2-.4-3.3-1.5q-1.1-1.2-1.1-2.9q0-1.4 .7-2.4q.7-1 2.1-1.6q1.3-.6 3.1-.6q1.7,0 3.1,.6q1.3,.6 2.1,1.8q.8,1.1 .9,2.6l-3,0q0-1.1-.9-1.8q-.8-.8-2.2-.8q-1.3,0-2.1,.7q-.7,.6-.7,1.5q0,.8 .6,1.2q.5,.5 1.6,.8l2.6,.5q2.3,.5 3.4,1.6q1,1 1,2.7q0,1.5-.8,2.5q-.8,1.1-2.2,1.7q-1.4,.6-3.2,.6zM228.8,210.4q-2.2,0-3.9-1.1q-1.7-1-2.6-2.8q-.9-1.8-.9-4.2q0-2.4 .9-4.2q.9-1.9 2.6-2.9q1.7-1 3.9-1q2.2,0 3.9,1q1.6,1 2.6,2.9q.9,1.8 .9,4.2q0,2.4-.9,4.2q-1,1.8-2.6,2.8q-1.7,1.1-3.9,1.1zM228.8,207.7q1.3,0 2.3-.7q.9-.6 1.4-1.9q.6-1.2 .6-2.8q0-1.7-.6-2.9q-.5-1.2-1.4-1.9q-1-.7-2.3-.7q-1.3,0-2.3,.7q-.9,.7-1.5,1.9q-.5,1.2-.5,2.9q0,1.6 .5,2.8q.6,1.3 1.5,1.9q1,.7 2.3,.7zM242,188.2l0,21.8l-3.1,0l0-21.8zM251.1,210.3q-1.6,0-2.9-.7q-1.2-.7-2-2.1q-.7-1.3-.7-3.3l0-9.7l3.1,0l0,9.3q0,1.8 .9,2.8q.9,.9 2.5,.9q1,0 1.9-.4q.8-.4 1.3-1.3q.5-.9 .5-2.4l0-8.9l3.1,0l0,15.5l-3,0l0-3.8l.7,0q-.8,2-2.1,3.1q-1.4,1-3.3,1zM269.7,194.5l0,2.6l-8.9,0l0-2.6zM263.5,190.3l3.1,0l0,15.6q0,.9 .4,1.2q.3,.4 1.2,.4q.4,0 .8,0q.4,0 .7,0l0,2.5q-.3,0-.9,0q-.5,0-1,0q-2.2,0-3.2-.9q-1.1-.9-1.1-2.8zM272.2,210l0-15.5l3.1,0l0,15.5zM273.7,191.9q-.8,0-1.4-.6q-.5-.5-.5-1.3q0-.8 .5-1.4q.6-.5 1.4-.5q.9,0 1.4,.5q.6,.6 .6,1.4q0,.8-.6,1.3q-.5,.6-1.4,.6zM285.4,210.4q-2.2,0-3.9-1.1q-1.6-1-2.6-2.8q-.9-1.8-.9-4.2q0-2.4 .9-4.2q1-1.9 2.6-2.9q1.7-1 3.9-1q2.2,0 3.9,1q1.7,1 2.6,2.9q.9,1.8 .9,4.2q0,2.4-.9,4.2q-.9,1.8-2.6,2.8q-1.7,1.1-3.9,1.1zM285.4,207.7q1.3,0 2.3-.7q1-.6 1.5-1.9q.5-1.2 .5-2.8q0-1.7-.5-2.9q-.5-1.2-1.5-1.9q-1-.7-2.3-.7q-1.3,0-2.3,.7q-.9,.7-1.4,1.9q-.6,1.2-.6,2.9q0,1.6 .6,2.8q.5,1.3 1.4,1.9q1,.7 2.3,.7zM298.7,201.1l0,8.9l-3.1,0l0-15.5l3,0l0,3.9l-.7,0q.7-2.1 2.1-3.1q1.3-1.1 3.3-1.1q1.6,0 2.8,.7q1.3,.7 2,2.1q.8,1.3 .8,3.4l0,9.6l-3.1,0l0-9.3q0-1.8-.9-2.8q-.9-.9-2.5-.9q-1.1,0-1.9,.4q-.9,.4-1.4,1.4q-.4,.9-.4,2.3zM326.1,210.4q-2.3,0-3.9-1.1q-1.7-1-2.6-2.9q-.9-1.8-.9-4.1q0-2.4 1-4.2q.9-1.8 2.5-2.9q1.6-1 3.7-1q1.7,0 3,.6q1.3,.6 2.3,1.6q.9,1.1 1.4,2.6q.6,1.5 .6,3.3l0,.8l-13.1,0l0-2.3l11.4,0l-1.3,.7q0-1.5-.5-2.5q-.6-1.1-1.5-1.7q-.9-.5-2.2-.5q-1.3,0-2.2,.5q-1,.6-1.5,1.7q-.5,1-.5,2.5l0,1.3q0,1.5 .5,2.6q.5,1.1 1.5,1.7q1,.7 2.3,.7q1.1,0 1.8-.3q.8-.4 1.3-.9q.5-.6 .8-1.3l2.9,0q-.3,1.5-1.2,2.6q-1,1.2-2.4,1.8q-1.5,.7-3.2,.7zM340.5,210.2q-1.5,0-2.7-.5q-1.2-.5-1.9-1.5q-.7-1.1-.7-2.6q0-1.3 .5-2.2q.5-.8 1.4-1.3q.8-.5 1.9-.8q1.1-.3 2.3-.4q1.5-.2 2.3-.3q.8-.1 1.2-.3q.4-.3 .4-.8l0-.2q0-.7-.4-1.3q-.4-.6-1.1-.9q-.7-.3-1.7-.3q-.9,0-1.7,.3q-.8,.3-1.2,.9q-.4,.5-.5,1.2l-3,0q0-1.4 .9-2.6q.8-1.1 2.2-1.7q1.4-.7 3.4-.7q1.4,0 2.5,.4q1.2,.4 2,1q.8,.7 1.2,1.7q.4,.9 .4,2.1l0,10.6l-3,0l0-2.2l-.1,0q-.3,.6-.9,1.2q-.5,.5-1.4,.9q-.9,.3-2.3,.3zM341.2,207.8q1.3,0 2.2-.5q.9-.5 1.3-1.3q.5-.8 .5-1.8l0-1.8q-.2,.1-.5,.2q-.4,.1-.9,.2q-.5,.1-1.1,.2q-.6,.1-1.2,.2q-.9,.1-1.6,.4q-.7,.3-1.2,.8q-.4,.4-.4,1.2q0,.7 .3,1.2q.4,.4 1,.7q.7,.3 1.6,.3zM358.3,210.4q-2.2,0-3.8-1.1q-1.7-1-2.6-2.8q-1-1.8-1-4.2q0-2.4 1-4.2q.9-1.9 2.6-2.9q1.6-1 3.8-1q1.4,0 2.6,.4q1.2,.4 2.1,1.2q.9,.7 1.4,1.8q.5,1 .7,2.2l-3.1,0q-.1-.6-.4-1.2q-.3-.5-.8-.9q-.4-.4-1-.6q-.7-.3-1.5-.3q-1.3,0-2.2,.7q-1,.7-1.5,1.9q-.5,1.2-.5,2.9q0,1.6 .5,2.8q.5,1.3 1.5,1.9q.9,.7 2.2,.7q.8,0 1.4-.2q.7-.2 1.1-.6q.4-.4 .7-1q.3-.5 .5-1.2l3.1,0q-.1,1.2-.7,2.2q-.5,1.1-1.4,1.8q-.9,.8-2.1,1.2q-1.2,.5-2.6,.5zM370.8,201.1l0,8.9l-3.1,0l0-21.8l3.1,0l0,10.2l-.8,0q.8-2.1 2.1-3.1q1.4-1.1 3.3-1.1q1.6,0 2.9,.7q1.3,.7 2,2.1q.7,1.3 .7,3.4l0,9.6l-3.1,0l0-9.3q0-1.8-.9-2.8q-.8-.9-2.5-.9q-1,0-1.9,.4q-.8,.4-1.3,1.4q-.5,.9-.5,2.3zM397.6,210.3q-3,0-4.8-1.7q-1.9-1.7-1.9-4.9l0-1.3l3.2,0l0,1.3q0,1.8 1,2.8q.9,1 2.5,1q1.6,0 2.5-1q1-1 1-2.8l0-15.5l3.2,0l0,15.5q0,3.2-1.8,4.9q-1.9,1.7-4.9,1.7zM414.6,210.4q-2.3,0-4-1.1q-1.6-1-2.5-2.9q-.9-1.8-.9-4.1q0-2.4 .9-4.2q1-1.8 2.6-2.9q1.6-1 3.7-1q1.7,0 3,.6q1.3,.6 2.3,1.6q.9,1.1 1.4,2.6q.5,1.5 .5,3.3l0,.8l-13,0l0-2.3l11.4,0l-1.3,.7q0-1.5-.6-2.5q-.5-1.1-1.4-1.7q-1-.5-2.3-.5q-1.2,0-2.2,.5q-.9,.6-1.4,1.7q-.5,1-.5,2.5l0,1.3q0,1.5 .5,2.6q.5,1.1 1.5,1.7q.9,.7 2.3,.7q1,0 1.8-.3q.8-.4 1.3-.9q.5-.6 .7-1.3l3,0q-.3,1.5-1.2,2.6q-1,1.2-2.4,1.8q-1.5,.7-3.2,.7zM427.4,188.2l0,21.8l-3.1,0l0-21.8zM434,188.2l0,21.8l-3.1,0l0-21.8zM437.7,216.1l0-2.6l1.6,0q.5,0 .9-.2q.3-.2 .6-.5q.3-.4 .5-1.1l.7-1.8l-5.9-15.4l3.3,0l3.1,8.5q.4,1.2 .8,2.4q.4,1.2 .8,2.4l-.9,0q.4-1.2 .8-2.4q.4-1.2 .8-2.4l3.1-8.5l3.2,0l-7,18.2q-.4,1.1-1.1,1.9q-.6,.7-1.5,1.1q-.8,.4-1.9,.4q-.5,0-1,0q-.5,0-.9,0zM460.7,194.5l0,2.6l-9,0l0-2.6zM454.5,210l0-18q0-1.2 .5-2.1q.5-.8 1.5-1.3q1-.4 2.4-.4q.6,0 1.1,0q.6,0 .7,0l0,2.5q-.1,0-.6,0q-.4,0-.7,0q-1,0-1.4,.4q-.4,.5-.4,1.4l0,17.5zM463.1,210l0-15.5l3.1,0l0,15.5zM464.6,191.9q-.8,0-1.4-.6q-.5-.5-.5-1.3q0-.8 .5-1.4q.6-.5 1.4-.5q.8,0 1.4,.5q.6,.6 .6,1.4q0,.8-.6,1.3q-.6,.6-1.4,.6zM472.7,201.1l0,8.9l-3.1,0l0-15.5l3.1,0l0,3.9l-.7,0q.7-2.1 2.1-3.1q1.3-1.1 3.2-1.1q1.6,0 2.9,.7q1.3,.7 2,2.1q.7,1.3 .7,3.4l0,9.6l-3,0l0-9.3q0-1.8-.9-2.8q-.9-.9-2.5-.9q-1.1,0-1.9,.4q-.9,.4-1.4,1.4q-.5,.9-.5,2.3zM499.2,210.3q-1.6,0-2.9-.7q-1.3-.7-2-2.1q-.7-1.3-.7-3.3l0-9.7l3.1,0l0,9.3q0,1.8 .9,2.8q.9,.9 2.5,.9q1,0 1.8-.4q.9-.4 1.4-1.3q.5-.9 .5-2.4l0-8.9l3.1,0l0,15.5l-3.1,0l0-3.8l.8,0q-.8,2-2.1,3.1q-1.4,1-3.3,1zM516.1,210.4q-1.8,0-3.2-.6q-1.4-.6-2.3-1.7q-.9-1.1-1-2.8l3.1,0q.1,1.2 1,1.9q.8,.7 2.3,.7q1.5,0 2.4-.6q.8-.6 .8-1.5q0-.8-.6-1.3q-.6-.5-1.6-.7l-2.6-.6q-2.2-.4-3.3-1.5q-1.1-1.2-1.1-2.9q0-1.4 .7-2.4q.8-1 2.1-1.6q1.3-.6 3.1-.6q1.7,0 3.1,.6q1.4,.6 2.1,1.8q.8,1.1 .9,2.6l-3,0q0-1.1-.8-1.8q-.9-.8-2.3-.8q-1.3,0-2,.7q-.8,.6-.8,1.5q0,.8 .6,1.2q.6,.5 1.6,.8l2.6,.5q2.3,.5 3.4,1.6q1,1 1,2.7q0,1.5-.8,2.5q-.8,1.1-2.2,1.7q-1.4,.6-3.2,.6zM531.7,210.4q-2.3,0-4-1.1q-1.6-1-2.5-2.9q-.9-1.8-.9-4.1q0-2.4 .9-4.2q.9-1.8 2.6-2.9q1.6-1 3.7-1q1.6,0 3,.6q1.3,.6 2.2,1.6q1,1.1 1.5,2.6q.5,1.5 .5,3.3l0,.8l-13,0l0-2.3l11.4,0l-1.4,.7q0-1.5-.5-2.5q-.5-1.1-1.4-1.7q-1-.5-2.3-.5q-1.2,0-2.2,.5q-.9,.6-1.4,1.7q-.6,1-.6,2.5l0,1.3q0,1.5 .6,2.6q.5,1.1 1.4,1.7q1,.7 2.4,.7q1,0 1.8-.3q.8-.4 1.3-.9q.5-.6 .7-1.3l3,0q-.3,1.5-1.2,2.6q-1,1.2-2.5,1.8q-1.4,.7-3.1,.7zM541.4,210l0-15.5l2.9,0l0,2.5l.1,0q.4-1.2 1.3-1.9q1-.8 2.4-.8q.4,0 .7,.1q.3,0 .5,0l0,2.9q-.2,0-.7-.1q-.4,0-1,0q-.8,0-1.5,.3q-.8,.4-1.2,1.3q-.4,.8-.4,2.1l0,9.1zM565.5,216.3q-1.9,0-3.4-.5q-1.4-.6-2.3-1.7q-.9-1.1-1.1-2.6l3.1,0q.2,.8 .7,1.3q.5,.5 1.3,.8q.7,.2 1.7,.2q1.8,0 2.9-1q1.1-1 1.1-2.9l0-2.3l-.1,0q-.5,.9-1.2,1.4q-.7,.6-1.6,.9q-.9,.3-1.9,.3q-2,0-3.6-1q-1.5-1-2.3-2.8q-.8-1.8-.8-4.2q0-2.3 .8-4.1q.8-1.9 2.4-2.9q1.5-1 3.5-1q1,0 1.9,.3q.9,.3 1.6,.9q.7,.6 1.3,1.5l0,0l0-2.4l3,0l0,15.3q0,2.3-.9,3.8q-1,1.4-2.6,2.1q-1.6,.6-3.5,.6zM565.3,207.6q1.3,0 2.3-.7q1-.7 1.5-1.9q.5-1.2 .5-2.8q0-1.6-.5-2.8q-.5-1.2-1.5-1.9q-1-.6-2.3-.6q-1.2,0-2.2,.6q-.9,.6-1.5,1.8q-.5,1.2-.5,2.9q0,1.7 .5,2.9q.6,1.2 1.5,1.8q1,.7 2.2,.7zM582.6,210.4q-2.3,0-3.9-1.1q-1.7-1-2.6-2.9q-.9-1.8-.9-4.1q0-2.4 1-4.2q.9-1.8 2.5-2.9q1.6-1 3.7-1q1.7,0 3,.6q1.3,.6 2.3,1.6q.9,1.1 1.5,2.6q.5,1.5 .5,3.3l0,.8l-13.1,0l0-2.3l11.4,0l-1.3,.7q0-1.5-.5-2.5q-.5-1.1-1.5-1.7q-.9-.5-2.2-.5q-1.3,0-2.2,.5q-1,.6-1.5,1.7q-.5,1-.5,2.5l0,1.3q0,1.5 .5,2.6q.5,1.1 1.5,1.7q1,.7 2.4,.7q1,0 1.7-.3q.8-.4 1.3-.9q.5-.6 .8-1.3l2.9,0q-.2,1.5-1.2,2.6q-1,1.2-2.4,1.8q-1.4,.7-3.2,.7zM599.8,194.5l0,2.6l-9,0l0-2.6zM593.6,190.3l3,0l0,15.6q0,.9 .4,1.2q.4,.4 1.3,.4q.3,0 .8,0q.4,0 .7,0l0,2.5q-.4,0-.9,0q-.6,0-1.1,0q-2.1,0-3.2-.9q-1-.9-1-2.8zM608,210.4q-1.8,0-3.2-.6q-1.4-.6-2.3-1.7q-.9-1.1-1-2.8l3.1,0q.1,1.2 .9,1.9q.9,.7 2.4,.7q1.5,0 2.3-.6q.9-.6 .9-1.5q0-.8-.6-1.3q-.6-.5-1.6-.7l-2.6-.6q-2.2-.4-3.3-1.5q-1.1-1.2-1.1-2.9q0-1.4 .7-2.4q.7-1 2.1-1.6q1.3-.6 3.1-.6q1.7,0 3.1,.6q1.3,.6 2.1,1.8q.8,1.1 .8,2.6l-2.9,0q0-1.1-.9-1.8q-.8-.8-2.2-.8q-1.3,0-2.1,.7q-.8,.6-.8,1.5q0,.8 .6,1.2q.6,.5 1.7,.8l2.6,.5q2.3,.5 3.3,1.6q1.1,1 1.1,2.7q0,1.5-.8,2.5q-.8,1.1-2.2,1.7q-1.4,.6-3.2,.6z"/><rect x="666" y="30" width="14" height="256" fill="#4A3B73"/><rect x="966" y="30" width="14" height="256" fill="#4A3B73"/><rect x="666" y="30" width="314" height="14" fill="#4A3B73"/><path d="M726 44 v58 M920 44 v58" stroke="#9A8CC0" stroke-width="3" stroke-dasharray="6 4"/><clipPath id="hb"><rect x="680" y="102" width="286" height="34" rx="4"/></clipPath><rect x="680" y="102" width="286" height="34" rx="4" fill="#FFC928"/><g clip-path="url(#hb)"><path d="M680 102 h20 l-24 34 h-20 z" fill="#1B1B1B"/><path d="M720 102 h20 l-24 34 h-20 z" fill="#1B1B1B"/><path d="M760 102 h20 l-24 34 h-20 z" fill="#1B1B1B"/><path d="M800 102 h20 l-24 34 h-20 z" fill="#1B1B1B"/><path d="M840 102 h20 l-24 34 h-20 z" fill="#1B1B1B"/><path d="M880 102 h20 l-24 34 h-20 z" fill="#1B1B1B"/><path d="M920 102 h20 l-24 34 h-20 z" fill="#1B1B1B"/><path d="M960 102 h20 l-24 34 h-20 z" fill="#1B1B1B"/><path d="M1000 102 h20 l-24 34 h-20 z" fill="#1B1B1B"/></g><rect x="731" y="140" width="184" height="44" rx="6" fill="#FFF"/><path fill="#1B1B1B"  d="M746.8,172l0-20.4l7.3,0l2.6,8q.3,.8 .6,1.8q.3,1.1 .6,2.2q.3,1.2 .6,2.2q.2,1.1 .4,1.8l-1.2,0q.1-.7 .4-1.8q.3-1 .6-2.2q.3-1.1 .6-2.2q.3-1 .5-1.8l2.6-8l7.3,0l0,20.4l-4.9,0l0-8.8q0-.7 .1-1.7q0-1.1 0-2.2q.1-1.2 .1-2.4q0-1.3 0-2.3l.6,0q-.3,1.1-.6,2.3q-.4,1.3-.7,2.4q-.3,1.2-.6,2.2q-.3,1-.5,1.7l-2.9,8.8l-4,0l-3-8.8q-.2-.7-.5-1.7q-.3-1-.6-2.2q-.4-1.1-.7-2.4q-.4-1.2-.7-2.3l.7,0q0,1 0,2.3q0,1.2 .1,2.4q0,1.1 0,2.2q.1,1 .1,1.7l0,8.8zM771,172l7-20.4l6.5,0l7.1,20.4l-5.5,0l-2.8-9q-.7-2.2-1.3-4.5q-.7-2.3-1.4-4.9l1.4,0q-.7,2.6-1.4,4.9q-.7,2.3-1.4,4.5l-2.8,9zM775.8,168.1l0-3.9l11,0l0,3.9zM791.7,172l8.6-12.2l0,3.7l-7.9-11.9l5.6,0l2,3.1q.4,.7 .8,1.4q.4,.6 .8,1.3q.4,.7 .8,1.4l-1.4,0q.5-.7 .9-1.4q.4-.7 .8-1.3q.4-.7 .9-1.4l1.9-3.1l5.5,0l-7.7,11.6l0-3.4l8.4,12.2l-5.7,0l-2.6-3.9q-.3-.6-.7-1.1q-.3-.6-.7-1.1q-.3-.5-.7-1.1l.7,0q-.3,.6-.7,1.1q-.3,.5-.7,1.1q-.3,.5-.7,1.1l-2.6,3.9zM827.2,151.6l0,20.4l-4.7,0l0-16l0,0l-4.7,2.9l0-4.1l5-3.2zM837.9,172.3q-2.7,0-4.6-1.3q-2-1.2-3-3.6q-1-2.3-1-5.6q0-3.2 1-5.6q1-2.3 3-3.6q1.9-1.3 4.6-1.3q2.7,0 4.6,1.3q1.9,1.3 2.9,3.6q1.1,2.4 1.1,5.6q0,3.3-1.1,5.6q-1,2.4-2.9,3.7q-1.9,1.2-4.6,1.2zM837.9,168.5q1.2,0 2.1-.8q.9-.8 1.4-2.3q.4-1.5 .4-3.6q0-2-.4-3.5q-.5-1.5-1.4-2.3q-.9-.8-2.1-.8q-1.2,0-2.1,.8q-.9,.8-1.4,2.3q-.5,1.5-.5,3.5q0,2.1 .5,3.6q.5,1.5 1.4,2.3q.9,.8 2.1,.8zM856,172.3q-2.5,0-4.3-.7q-1.8-.7-2.8-2q-1-1.4-1-3.1q0-1.4 .6-2.5q.7-1 1.8-1.7q1.2-.7 2.7-.9l0,0q-2-.3-3.2-1.5q-1.3-1.2-1.3-3q0-1.7 1-2.9q.9-1.3 2.6-2q1.7-.7 3.9-.7q2.2,0 3.9,.7q1.6,.7 2.5,1.9q1,1.3 1,3q0,1.8-1.2,3q-1.2,1.2-3.3,1.5l0,0q1.6,.2 2.7,.9q1.2,.7 1.8,1.7q.6,1.1 .6,2.5q0,1.7-1,3.1q-1,1.3-2.8,2q-1.8,.7-4.2,.7zM856,168.9q.9,0 1.6-.3q.7-.4 1.1-1q.4-.6 .4-1.5q0-.8-.4-1.4q-.4-.7-1.1-1q-.7-.4-1.6-.4q-1,0-1.7,.4q-.7,.3-1.1,1q-.4,.6-.4,1.4q0,.9 .4,1.5q.4,.6 1.1,1q.7,.3 1.7,.3zM856,159.8q.8,0 1.4-.3q.6-.3 .9-.9q.4-.5 .4-1.3q0-.7-.4-1.3q-.3-.6-.9-.9q-.6-.3-1.4-.3q-.9,0-1.5,.3q-.6,.3-.9,.9q-.4,.6-.4,1.3q0,.8 .4,1.3q.3,.6 .9,.9q.6,.3 1.5,.3zM874.1,172.3q-2.7,0-4.6-1.3q-2-1.2-3-3.6q-1-2.3-1-5.6q0-3.2 1-5.6q1-2.3 3-3.6q1.9-1.3 4.6-1.3q2.7,0 4.6,1.3q1.9,1.3 2.9,3.6q1.1,2.4 1.1,5.6q0,3.3-1.1,5.6q-1,2.4-2.9,3.7q-1.9,1.2-4.6,1.2zM874.1,168.5q1.2,0 2.1-.8q.9-.8 1.4-2.3q.4-1.5 .4-3.6q0-2-.4-3.5q-.5-1.5-1.4-2.3q-.9-.8-2.1-.8q-1.3,0-2.2,.8q-.9,.8-1.3,2.3q-.5,1.5-.5,3.5q0,2.1 .5,3.6q.4,1.5 1.3,2.3q.9,.8 2.2,.8zM884.7,177.7l0-20.1l4.6,0l0,1.8l.1,0q.4-.7 1-1.2q.7-.5 1.4-.7q.8-.3 1.8-.3q1.8,0 3.2,1q1.4,.9 2.2,2.6q.7,1.7 .7,4q0,2.2-.7,3.9q-.8,1.7-2.2,2.7q-1.4,.9-3.3,.9q-.9,0-1.7-.3q-.8-.2-1.4-.8q-.6-.5-1-1.3l0,0l0,7.8zM892.2,168.6q.9,0 1.5-.5q.6-.5 1-1.3q.3-.9 .3-2q0-1.2-.3-2.1q-.4-.8-1-1.3q-.6-.4-1.5-.4q-.9,0-1.6,.5q-.6,.4-1,1.3q-.4,.8-.4,2q0,1.1 .4,2q.4,.8 1,1.3q.7,.5 1.6,.5z"/><rect x="1080" y="56" width="190" height="194" rx="6" fill="#AA5CC3"/><path fill="#FFF"  d="M1133,161l14,0l0-10q2-3 4-8q3-4 3-7l6,0l0,25l7,0l0,11l-7,0l0,10l-13,0l0-10l-24,0l0-11q4-5 7-13q4-8 6-16l15,0q-1,3-4,9q-3,6-7,11q-4,6-7,9zM1208,132l20,0l-18,21l18,29l-19,0l-10-18l-9,7l0,11l-16,0l0-50l16,0l0,22z"/><path d="M1050 150 h30 v100 h-60 v-50 z" fill="#00A4DC"/><rect x="1032" y="160" width="22" height="30" fill="#CDEFFb"/><circle cx="1060" cy="258" r="22" fill="#111"/><circle cx="1060" cy="258" r="9" fill="#777"/><circle cx="1140" cy="258" r="22" fill="#111"/><circle cx="1140" cy="258" r="9" fill="#777"/><circle cx="1230" cy="258" r="22" fill="#111"/><circle cx="1230" cy="258" r="9" fill="#777"/></g></svg>
